<svg width="28" height="16" viewBox="0 0 28 16" fill="none" xmlns="http://www.w3.org/2000/svg">
<path d="M20.454 11.9533C19.81 11.9533 19.278 11.428 19.278 10.7748C19.278 10.1217 19.81 9.61052 20.454 9.61052C21.098 9.61052 21.63 10.1217 21.63 10.7748C21.63 11.428 21.098 11.9533 20.454 11.9533ZM7.574 11.9533C6.93 11.9533 6.398 11.428 6.398 10.7748C6.398 10.1217 6.93 9.61052 7.574 9.61052C8.218 9.61052 8.736 10.1217 8.736 10.7748C8.736 11.428 8.218 11.9533 7.574 11.9533ZM20.874 4.83971L23.212 0.750444C23.338 0.509064 23.254 0.210888 23.03 0.0830985C22.792 -0.0588899 22.498 0.0263033 22.4 0.267684L20.006 4.39955C18.13 3.53342 16.1 3.07905 14 3.09325C11.858 3.09325 9.8 3.56181 8.022 4.38535L5.656 0.253484C5.53 0.0121041 5.236 -0.0730884 4.998 0.0689C4.76 0.19669 4.69 0.494865 4.816 0.736245L7.14 4.82551C3.15 7.04053 0.406 11.144 0 16H28C27.608 11.1582 24.878 7.05473 20.874 4.83971Z" fill="#C0EEF2"/>
</svg>
