<svg width="31" height="30" viewBox="0 0 31 30" fill="none" xmlns="http://www.w3.org/2000/svg">
<path d="M29.5316 6.73656C28.9646 7.30315 28.4143 7.85308 28.3977 8.403C28.3476 8.93626 28.9146 9.48618 29.4482 10.0028C30.2486 10.836 31.0323 11.5859 30.999 12.4024C30.9656 13.219 30.1152 14.0689 29.2648 14.9021L22.378 21.8011L20.0101 19.4348L27.097 12.3691L25.4962 10.7693L23.1283 13.119L16.8752 6.86988L23.2784 0.487432C23.9287 -0.162477 25.0126 -0.162477 25.6296 0.487432L29.5316 4.38689C30.1819 5.00347 30.1819 6.08665 29.5316 6.73656ZM0 23.7509L15.9414 7.80308L22.1945 14.0522L6.25315 30H0V23.7509Z" fill="black"/>
</svg>
