<svg width="36" height="36" viewBox="0 0 36 36" fill="none" xmlns="http://www.w3.org/2000/svg">
<path d="M15.6284 29.3033H19.5355V25.3962H15.6284V29.3033ZM17.582 5.86066C13.2842 5.86066 9.76776 9.37705 9.76776 13.6749H13.6749C13.6749 11.526 15.4331 9.76776 17.582 9.76776C19.7309 9.76776 21.4891 11.526 21.4891 13.6749C21.4891 17.582 15.6284 17.1913 15.6284 23.4426H19.5355C19.5355 19.1448 25.3962 18.5587 25.3962 13.6749C25.3962 9.37705 21.8798 5.86066 17.582 5.86066ZM31.2568 3.9071V31.2568H3.9071V3.9071H31.2568ZM31.2568 0H3.9071C1.7582 0 0 1.7582 0 3.9071V31.2568C0 33.4057 1.7582 35.1639 3.9071 35.1639H31.2568C33.4057 35.1639 35.1639 33.4057 35.1639 31.2568V3.9071C35.1639 1.7582 33.4057 0 31.2568 0Z" fill="#FFFBF5"/>
</svg>
