<svg width="20" height="25" viewBox="0 0 20 25" fill="none" xmlns="http://www.w3.org/2000/svg">
<path d="M18.299 21.8735C17.2759 23.4234 16.1912 24.9358 14.5395 24.9608C12.8878 24.9983 12.3578 23.9734 10.4842 23.9734C8.59826 23.9734 8.01893 24.9358 6.4535 24.9983C4.83876 25.0608 3.61847 23.3484 2.58307 21.836C0.475286 18.7488 -1.13945 13.0616 1.02997 9.23689C2.10235 7.33701 4.02523 6.13709 6.10836 6.09959C7.68612 6.0746 9.18992 7.18702 10.1637 7.18702C11.1251 7.18702 12.9494 5.84961 14.86 6.0496C15.6612 6.0871 17.9045 6.37458 19.3467 8.52443C19.2358 8.59943 16.6719 10.1243 16.6966 13.2866C16.7336 17.0614 19.963 18.3238 20 18.3363C19.963 18.4238 19.4823 20.1362 18.299 21.8735ZM11.2607 1.87488C12.1605 0.837444 13.652 0.0499967 14.8846 0C15.0449 1.4624 14.4655 2.9373 13.6027 3.98724C12.7522 5.04966 11.347 5.87461 9.96647 5.76212C9.78157 4.32471 10.4718 2.82481 11.2607 1.87488Z" fill="#C0EEF2"/>
</svg>
