<svg width="26" height="28" viewBox="0 0 26 28" fill="none" xmlns="http://www.w3.org/2000/svg">
<g filter="url(#filter0_d_151_1094)">
<path d="M11 15V12H4V8H11V5L16 10L11 15ZM11 0H20C20.5304 0 21.0391 0.210714 21.4142 0.585786C21.7893 0.960859 22 1.46957 22 2V18C22 18.5304 21.7893 19.0391 21.4142 19.4142C21.0391 19.7893 20.5304 20 20 20H11C10.4696 20 9.96086 19.7893 9.58579 19.4142C9.21071 19.0391 9 18.5304 9 18V16H11V18H20V2H11V4H9V2C9 1.46957 9.21071 0.960859 9.58579 0.585786C9.96086 0.210714 10.4696 0 11 0Z" fill="black"/>
</g>
<defs>
<filter id="filter0_d_151_1094" x="0" y="0" width="26" height="28" filterUnits="userSpaceOnUse" color-interpolation-filters="sRGB">
<feFlood flood-opacity="0" result="BackgroundImageFix"/>
<feColorMatrix in="SourceAlpha" type="matrix" values="0 0 0 0 0 0 0 0 0 0 0 0 0 0 0 0 0 0 127 0" result="hardAlpha"/>
<feOffset dy="4"/>
<feGaussianBlur stdDeviation="2"/>
<feComposite in2="hardAlpha" operator="out"/>
<feColorMatrix type="matrix" values="0 0 0 0 0 0 0 0 0 0 0 0 0 0 0 0 0 0 0.25 0"/>
<feBlend mode="normal" in2="BackgroundImageFix" result="effect1_dropShadow_151_1094"/>
<feBlend mode="normal" in="SourceGraphic" in2="effect1_dropShadow_151_1094" result="shape"/>
</filter>
</defs>
</svg>
