<svg width="38" height="37" viewBox="0 0 38 37" fill="none" xmlns="http://www.w3.org/2000/svg">
<path d="M19 16.28C20.6125 16.28 22.159 16.9037 23.2992 18.0139C24.4394 19.1241 25.08 20.6299 25.08 22.2C25.08 23.7701 24.4394 25.2759 23.2992 26.3861C22.159 27.4963 20.6125 28.12 19 28.12C17.3875 28.12 15.841 27.4963 14.7008 26.3861C13.5606 25.2759 12.92 23.7701 12.92 22.2C12.92 20.6299 13.5606 19.1241 14.7008 18.0139C15.841 16.9037 17.3875 16.28 19 16.28ZM26.6 2.4605V0C29.6235 0 32.5231 1.16946 34.661 3.25111C36.7989 5.33277 38 8.1561 38 11.1H35.473C35.473 6.327 31.502 2.4605 26.6 2.4605ZM26.6 7.4V4.9395C30.096 4.9395 32.927 7.696 32.927 11.1H30.4C30.4 9.0465 28.709 7.4 26.6 7.4ZM28.5 12.95H38V33.3C38 34.2813 37.5996 35.2224 36.887 35.9163C36.1744 36.6102 35.2078 37 34.2 37H3.8C2.79218 37 1.82563 36.6102 1.11299 35.9163C0.400356 35.2224 0 34.2813 0 33.3V11.1C0 10.1187 0.400356 9.17759 1.11299 8.4837C1.82563 7.78982 2.79218 7.4 3.8 7.4H9.823L13.3 3.7H24.7V9.25C26.809 9.25 28.5 10.8965 28.5 12.95ZM19 31.45C21.5196 31.45 23.9359 30.4755 25.7175 28.7407C27.4991 27.006 28.5 24.6533 28.5 22.2C28.5 19.7467 27.4991 17.394 25.7175 15.6593C23.9359 13.9246 21.5196 12.95 19 12.95C16.4804 12.95 14.0641 13.9246 12.2825 15.6593C10.5009 17.394 9.5 19.7467 9.5 22.2C9.5 24.6533 10.5009 27.006 12.2825 28.7407C14.0641 30.4755 16.4804 31.45 19 31.45Z" fill="#F7EFE5"/>
</svg>
