<svg width="50" height="40" viewBox="0 0 50 40" fill="none" xmlns="http://www.w3.org/2000/svg">
<path d="M10.075 20.0751L15.075 28.7501L8.75 36.7L0 21.5501L10.075 20.0751ZM37.5 35V28.2251C39.7 27.2501 41.25 25.0751 41.25 22.5001C41.25 21.0751 40.75 19.7501 39.925 18.7501L44.85 15.8751C47.375 14.4001 48.25 11.1752 46.775 8.65017L43.325 2.65021C41.85 0.125222 38.625 -0.749772 36.1 0.700219L15.775 12.5002C13.4 13.8251 12.575 16.8751 13.95 19.2751L17.7 25.7751C19.075 28.1501 22.15 28.9751 24.525 27.6001L29.225 24.9001C29.85 26.3751 31.025 27.5751 32.5 28.2251V35C32.5 37.75 34.75 40 37.5 40H50V35H37.5Z" fill="black"/>
</svg>
