<svg width="39" height="31" viewBox="0 0 39 31" fill="none" xmlns="http://www.w3.org/2000/svg">
<path d="M30.6885 0L34.5246 7.72541H28.7705L24.9344 0H21.0984L24.9344 7.72541H19.1803L15.3443 0H11.5082L15.3443 7.72541H9.59016L5.7541 0H3.83607C2.81868 0 1.84296 0.406962 1.12356 1.13136C0.404156 1.85576 0 2.83825 0 3.8627V27.0389C0 28.0634 0.404156 29.0459 1.12356 29.7703C1.84296 30.4947 2.81868 30.9016 3.83607 30.9016H34.5246C35.542 30.9016 36.5177 30.4947 37.2371 29.7703C37.9565 29.0459 38.3607 28.0634 38.3607 27.0389V0H30.6885Z" fill="#FFFBF5"/>
</svg>
