<svg width="61" height="40" viewBox="0 0 61 40" fill="none" xmlns="http://www.w3.org/2000/svg">
<path d="M0 3.33333C0 1.49238 1.49238 0 3.33333 0H57.6667C59.5076 0 61 1.49238 61 3.33333C61 5.17428 59.5076 6.66667 57.6667 6.66667H3.33333C1.49238 6.66667 0 5.17428 0 3.33333ZM0 20C0 18.159 1.49238 16.6667 3.33333 16.6667H57.6667C59.5076 16.6667 61 18.159 61 20C61 21.8409 59.5076 23.3333 57.6667 23.3333H3.33333C1.49238 23.3333 0 21.8409 0 20ZM0 36.6667C0 34.8257 1.49238 33.3333 3.33333 33.3333H57.6667C59.5076 33.3333 61 34.8257 61 36.6667C61 38.5076 59.5076 40 57.6667 40H3.33333C1.49238 40 0 38.5076 0 36.6667Z" fill="#674188"/>
</svg>
