<svg width="31" height="32" viewBox="0 0 31 32" fill="none" xmlns="http://www.w3.org/2000/svg">
<path d="M15.4508 0C17.4997 0 19.4647 0.841991 20.9135 2.34074C22.3623 3.8395 23.1762 5.87225 23.1762 7.9918C23.1762 10.1114 22.3623 12.1441 20.9135 13.6429C19.4647 15.1416 17.4997 15.9836 15.4508 15.9836C13.4019 15.9836 11.4369 15.1416 9.98813 13.6429C8.53933 12.1441 7.72541 10.1114 7.72541 7.9918C7.72541 5.87225 8.53933 3.8395 9.98813 2.34074C11.4369 0.841991 13.4019 0 15.4508 0ZM15.4508 19.9795C23.9874 19.9795 30.9016 23.5558 30.9016 27.9713V31.9672H0V27.9713C0 23.5558 6.91424 19.9795 15.4508 19.9795Z" fill="#FFFBF5"/>
</svg>
