<svg width="31" height="41" viewBox="0 0 31 41" fill="none" xmlns="http://www.w3.org/2000/svg">
<path d="M15.4508 30.8509C16.4753 30.8509 17.4578 30.4446 18.1822 29.7214C18.9066 28.9982 19.3135 28.0173 19.3135 26.9945C19.3135 24.8543 17.5753 23.1382 15.4508 23.1382C14.4264 23.1382 13.4439 23.5445 12.7195 24.2677C11.9951 24.9909 11.5881 25.9718 11.5881 26.9945C11.5881 28.0173 11.9951 28.9982 12.7195 29.7214C13.4439 30.4446 14.4264 30.8509 15.4508 30.8509ZM27.0389 13.4973C28.0634 13.4973 29.0459 13.9036 29.7703 14.6268C30.4947 15.35 30.9016 16.3309 30.9016 17.3536V36.6354C30.9016 37.6582 30.4947 38.6391 29.7703 39.3623C29.0459 40.0855 28.0634 40.4918 27.0389 40.4918H3.8627C2.83825 40.4918 1.85576 40.0855 1.13136 39.3623C0.406962 38.6391 0 37.6582 0 36.6354V17.3536C0 15.2133 1.73822 13.4973 3.8627 13.4973H5.79406V9.64091C5.79406 7.08398 6.81146 4.63178 8.62246 2.82376C10.4335 1.01574 12.8897 0 15.4508 0C16.719 0 17.9747 0.249369 19.1463 0.73387C20.3179 1.21837 21.3825 1.92851 22.2792 2.82376C23.1759 3.719 23.8872 4.7818 24.3725 5.95149C24.8578 7.12118 25.1076 8.37484 25.1076 9.64091V13.4973H27.0389ZM15.4508 3.85636C13.9141 3.85636 12.4404 4.4658 11.3538 5.55062C10.2672 6.63543 9.65676 8.10675 9.65676 9.64091V13.4973H21.2449V9.64091C21.2449 8.10675 20.6344 6.63543 19.5478 5.55062C18.4612 4.4658 16.9875 3.85636 15.4508 3.85636Z" fill="#FFFBF5"/>
</svg>
