<svg width="23" height="23" viewBox="0 0 23 23" fill="none" xmlns="http://www.w3.org/2000/svg">
<path d="M8.54286 0C10.8086 0 12.9815 0.900048 14.5836 2.50214C16.1857 4.10424 17.0857 6.27715 17.0857 8.54286C17.0857 10.6589 16.3103 12.604 15.0354 14.1023L15.3903 14.4571H16.4286L23 21.0286L21.0286 23L14.4571 16.4286V15.3903L14.1023 15.0354C12.604 16.3103 10.6589 17.0857 8.54286 17.0857C6.27715 17.0857 4.10424 16.1857 2.50214 14.5836C0.900048 12.9815 0 10.8086 0 8.54286C0 6.27715 0.900048 4.10424 2.50214 2.50214C4.10424 0.900048 6.27715 0 8.54286 0ZM8.54286 2.62857C5.25714 2.62857 2.62857 5.25714 2.62857 8.54286C2.62857 11.8286 5.25714 14.4571 8.54286 14.4571C11.8286 14.4571 14.4571 11.8286 14.4571 8.54286C14.4571 5.25714 11.8286 2.62857 8.54286 2.62857Z" fill="#674188"/>
</svg>
