<svg width="39" height="39" viewBox="0 0 39 39" fill="none" xmlns="http://www.w3.org/2000/svg">
<path d="M19.1847 25.8934C17.3543 25.8934 15.5989 25.1862 14.3046 23.9272C13.0104 22.6683 12.2832 20.9608 12.2832 19.1803C12.2832 17.3999 13.0104 15.6924 14.3046 14.4334C15.5989 13.1745 17.3543 12.4672 19.1847 12.4672C21.0151 12.4672 22.7705 13.1745 24.0647 14.4334C25.359 15.6924 26.0861 17.3999 26.0861 19.1803C26.0861 20.9608 25.359 22.6683 24.0647 23.9272C22.7705 25.1862 21.0151 25.8934 19.1847 25.8934ZM33.8355 21.0408C33.9143 20.4271 33.9735 19.8133 33.9735 19.1803C33.9735 18.5474 33.9143 17.9144 33.8355 17.2623L37.996 14.1359C38.3707 13.8482 38.4693 13.3303 38.2327 12.9084L34.289 6.27197C34.0524 5.85 33.52 5.67738 33.0862 5.85L28.1763 7.76803C27.1509 7.02 26.0861 6.36787 24.8439 5.88836L24.1143 0.805574C24.0354 0.345246 23.6213 0 23.1284 0H15.241C14.748 0 14.334 0.345246 14.2551 0.805574L13.5255 5.88836C12.2832 6.36787 11.2185 7.02 10.1931 7.76803L5.28321 5.85C4.84941 5.67738 4.31701 5.85 4.08039 6.27197L0.136711 12.9084C-0.119628 13.3303 -0.00131778 13.8482 0.373332 14.1359L4.53391 17.2623C4.45504 17.9144 4.39589 18.5474 4.39589 19.1803C4.39589 19.8133 4.45504 20.4271 4.53391 21.0408L0.373332 24.2248C-0.00131778 24.5125 -0.119628 25.0303 0.136711 25.4523L4.08039 32.0887C4.31701 32.5107 4.84941 32.6641 5.28321 32.5107L10.1931 30.5734C11.2185 31.3407 12.2832 31.9928 13.5255 32.4723L14.2551 37.5551C14.334 38.0154 14.748 38.3607 15.241 38.3607H23.1284C23.6213 38.3607 24.0354 38.0154 24.1143 37.5551L24.8439 32.4723C26.0861 31.9736 27.1509 31.3407 28.1763 30.5734L33.0862 32.5107C33.52 32.6641 34.0524 32.5107 34.289 32.0887L38.2327 25.4523C38.4693 25.0303 38.3707 24.5125 37.996 24.2248L33.8355 21.0408Z" fill="#FFFBF5"/>
</svg>
