<svg width="36" height="39" viewBox="0 0 36 39" fill="none" xmlns="http://www.w3.org/2000/svg">
<path d="M25.3962 28.7705V23.0164H11.7213V15.3443H25.3962V9.59016L35.1639 19.1803L25.3962 28.7705ZM21.4891 0C22.5253 0 23.5191 0.404156 24.2518 1.12356C24.9845 1.84296 25.3962 2.81868 25.3962 3.83607V7.67213H21.4891V3.83607H3.9071V34.5246H21.4891V30.6885H25.3962V34.5246C25.3962 35.542 24.9845 36.5177 24.2518 37.2371C23.5191 37.9565 22.5253 38.3607 21.4891 38.3607H3.9071C2.87088 38.3607 1.87709 37.9565 1.14436 37.2371C0.41164 36.5177 0 35.542 0 34.5246V3.83607C0 2.81868 0.41164 1.84296 1.14436 1.12356C1.87709 0.404156 2.87088 0 3.9071 0H21.4891Z" fill="#FFFBF5"/>
</svg>
