<svg width="31" height="17" viewBox="0 0 31 17" fill="none" xmlns="http://www.w3.org/2000/svg">
<path d="M31 2C29.859 2.35 28.6291 2.58 27.3547 2.69C28.6587 2.16 29.6664 1.32 30.1405 0.31C28.9106 0.81 27.5473 1.16 26.1099 1.36C24.9393 0.5 23.2945 0 21.4273 0C17.945 0 15.0999 1.92 15.0999 4.29C15.0999 4.63 15.1592 4.96 15.2629 5.27C9.98757 5.09 5.29015 3.38 2.16348 0.79C1.6152 1.42 1.30402 2.16 1.30402 2.94C1.30402 4.43 2.41539 5.75 4.13432 6.5C3.08222 6.5 2.10421 6.3 1.24474 6C1.24474 6 1.24474 6 1.24474 6.03C1.24474 8.11 3.43786 9.85 6.34226 10.24C5.8088 10.34 5.2457 10.39 4.66778 10.39C4.26769 10.39 3.86759 10.36 3.48231 10.31C4.28251 12 6.60899 13.26 9.40966 13.29C7.24618 14.45 4.50478 15.13 1.51147 15.13C1.00765 15.13 0.503824 15.11 0 15.07C2.81549 16.29 6.16444 17 9.75048 17C21.4273 17 27.8437 10.46 27.8437 4.79C27.8437 4.6 27.8437 4.42 27.8289 4.23C29.0736 3.63 30.1405 2.87 31 2Z" fill="black"/>
</svg>
